# xmcd
#
# Track frame offsets: 
#        150
#        38748
#        58004
#        73612
#        95142
#        130114
#        190543
#        215884
#        228039
#        236381
#
# Disc length: 3170 seconds
#
# Revision: 1
# Processed by: cddbd v1.5.2PL0 Copyright (c) Steve Scherf et al.
# Submitted via: ExactAudioCopy v0.95a5
#
DISCID=860c600a
DTITLE=Black Sabbath - Orpheum Theatre Boston 09-08-92 FM Disc 2
DYEAR=1992
DGENRE=Hard Rock
TTITLE0=Black Sabbath
TTITLE1=Master Of Insanity
TTITLE2=After All (The Dead)
TTITLE3=Vinny Appice Drum Solo
TTITLE4=Iron Man
TTITLE5=Heaven And Hell
TTITLE6=Neon Knights
TTITLE7=Paranoid
TTITLE8=Heaven And Hell (Reprise)
TTITLE9=Laguna Sunrise (Outro)
EXTD=
EXTT0=
EXTT1=
EXTT2=
EXTT3=
EXTT4=
EXTT5=
EXTT6=
EXTT7=
EXTT8=
EXTT9=
PLAYORDER=
